<svg id="Layer_1" data-name="Layer 1" xmlns="http://www.w3.org/2000/svg" viewBox="0 0 129.77 98.6"><defs><style>.cls-1{fill:#de0029;}.cls-2{fill:#f3c202;}.cls-3{fill:#326db3;}.cls-4{fill:#00aa9e;}</style></defs><title>logo</title><g id="g3"><path id="path7" class="cls-1" d="M72.1,22.08,72,100.18,51.09,93.37V1.58L77.8,8.64c17.1,4.59,27.56,13.53,27.39,29.18C105,56,96.59,63.34,80.18,58.58V22.67c0-4.34-8.08-4.59-8.08-.59Z" transform="translate(-2.08 -1.58)"/><path id="path9" class="cls-2" d="M41.48,78.23l-9.87,3.32c-6.38,2.21-11.82-3-6-5.1l4.76-1.7L12.47,69C6.94,70.91,1.75,74.91,2.09,80.52s13.35,7.06,23.39,8.68a51.1,51.1,0,0,0,25.6-2V81.29l-9.61-3.06Zm30.71,21.95,18.29-6.38L72,87.93V99.75l.17.43Z" transform="translate(-2.08 -1.58)"/><path id="path11" class="cls-3" d="M120.84,83.08l.34-.09c8-2.81,11.4-6.72,10.55-10.38-1.36-6.12-11.14-9.44-26.2-10.55-10.8-.77-21.43,1.62-31.81,5.19l-1.7.6,18.63,5.78L101.53,70c11.4-2.13,16,1.62,5,5.1l-5.44,1.87,19.73,6.13ZM51.09,56l-8.25,2.81,8.25,2.55V56Z" transform="translate(-2.08 -1.58)"/><path id="path13" class="cls-4" d="M90.47,93.79l30.37-10.72L101.1,76.95,72,86.9v1l18.46,5.87ZM51.09,75l-9.61,3.23,9.61,3.06V75ZM72,80V67.85l18.63,5.78L72,80ZM30.42,74.74l20.67-7.4v-6l-8.25-2.55L12.9,69a3.73,3.73,0,0,1-.43.08l17.95,5.7Z" transform="translate(-2.08 -1.58)"/></g></svg>